<svg width="30" height="30" viewBox="0 0 30 30" fill="none" xmlns="http://www.w3.org/2000/svg">
<mask id="mask0_115_460" style="mask-type:alpha" maskUnits="userSpaceOnUse" x="3" y="3" width="24" height="24">
<rect x="3" y="3" width="24" height="24" fill="#D9D9D9"/>
</mask>
<g mask="url(#mask0_115_460)">
<path d="M7.61538 22C7.15513 22 6.77083 21.8458 6.4625 21.5375C6.15417 21.2292 6 20.8449 6 20.3846V9.61537C6 9.15512 6.15417 8.77083 6.4625 8.4625C6.77083 8.15417 7.15513 8 7.61538 8H22.3846C22.8449 8 23.2292 8.15417 23.5375 8.4625C23.8458 8.77083 24 9.15512 24 9.61537V20.3846C24 20.8449 23.8458 21.2292 23.5375 21.5375C23.2292 21.8458 22.8449 22 22.3846 22H7.61538ZM7.61538 21H22.3846C22.5385 21 22.6795 20.9359 22.8077 20.8077C22.9359 20.6795 23 20.5385 23 20.3846V11H7V20.3846C7 20.5385 7.0641 20.6795 7.1923 20.8077C7.32052 20.9359 7.46154 21 7.61538 21ZM10.5 19.2885L9.81153 18.6L12.3865 16L9.78653 13.4L10.5 12.7115L13.7885 16L10.5 19.2885ZM15.5 19.5V18.5H20.5V19.5H15.5Z" fill="#1C1B1F"/>
</g>
</svg>
