<svg width="30" height="30" viewBox="0 0 30 30" fill="none" xmlns="http://www.w3.org/2000/svg">
<path d="M14.7375 9.576C15.7295 9.576 16.5455 9.672 17.1855 9.864C17.8255 10.0453 18.3002 10.3493 18.6095 10.776C18.9188 11.192 19.0735 11.7573 19.0735 12.472C19.0735 12.8987 18.9988 13.288 18.8495 13.64C18.7002 13.992 18.4975 14.28 18.2415 14.504C17.9962 14.728 17.7188 14.872 17.4095 14.936V15.016C17.7295 15.0907 18.0335 15.224 18.3215 15.416C18.6202 15.608 18.8602 15.8853 19.0415 16.248C19.2228 16.6107 19.3135 17.0907 19.3135 17.688C19.3135 18.3813 19.1482 18.9787 18.8175 19.48C18.4975 19.9707 18.0388 20.3493 17.4415 20.616C16.8442 20.872 16.1295 21 15.2975 21H11.2015V9.576H14.7375ZM14.8815 14.104C15.4575 14.104 15.8575 13.992 16.0815 13.768C16.3055 13.544 16.4175 13.2187 16.4175 12.792C16.4175 12.3547 16.2842 12.04 16.0175 11.848C15.7615 11.656 15.3562 11.56 14.8015 11.56H13.7935V14.104H14.8815ZM13.7935 16.024V19H15.0415C15.6388 19 16.0548 18.8613 16.2895 18.584C16.5242 18.296 16.6415 17.9173 16.6415 17.448C16.6415 17.16 16.5882 16.9093 16.4815 16.696C16.3855 16.4827 16.2148 16.3173 15.9695 16.2C15.7348 16.0827 15.4042 16.024 14.9775 16.024H13.7935Z" fill="#424242"/>
</svg>
