<svg fill="none" height="30" viewBox="0 0 30 30" width="30" xmlns="http://www.w3.org/2000/svg" xmlns:xlink="http://www.w3.org/1999/xlink"><mask id="a" height="24" maskUnits="userSpaceOnUse" width="24" x="3" y="3"><path d="m3 3h24v24h-24z" fill="#d9d9d9"/></mask><g mask="url(#a)"><path d="m15 25c-1.3667 0-2.6583-.2625-3.875-.7875-1.21667-.525-2.27917-1.2417-3.1875-2.15s-1.625-1.9708-2.15-3.1875-.7875-2.5083-.7875-3.875c0-1.3833.27083-2.6833.8125-3.9.54167-1.21667 1.275-2.275 2.2-3.175s2.0042-1.6125 3.2375-2.1375 2.55-.7875 3.95-.7875c1.3333 0 2.5917.22917 3.775.6875s2.2208 1.09167 3.1125 1.9 1.6 1.76667 2.125 2.875c.525 1.1083.7875 2.3042.7875 3.5875 0 1.9167-.5833 3.3875-1.75 4.4125s-2.5833 1.5375-4.25 1.5375h-1.85c-.15 0-.2542.0417-.3125.125s-.0875.175-.0875.275c0 .2.125.4875.375.8625s.375.8042.375 1.2875c0 .8333-.2292 1.45-.6875 1.85s-1.0625.6-1.8125.6zm-5.5-9c.43333 0 .7917-.1417 1.075-.425s.425-.6417.425-1.075-.1417-.7917-.425-1.075-.64167-.425-1.075-.425-.79167.1417-1.075.425-.425.6417-.425 1.075.14167.7917.425 1.075.64167.425 1.075.425zm3-4c.4333 0 .7917-.1417 1.075-.425s.425-.6417.425-1.075-.1417-.79167-.425-1.075-.6417-.425-1.075-.425-.7917.14167-1.075.425-.425.6417-.425 1.075.1417.7917.425 1.075.6417.425 1.075.425zm5 0c.4333 0 .7917-.1417 1.075-.425s.425-.6417.425-1.075-.1417-.79167-.425-1.075-.6417-.425-1.075-.425-.7917.14167-1.075.425-.425.6417-.425 1.075.1417.7917.425 1.075.6417.425 1.075.425zm3 4c.4333 0 .7917-.1417 1.075-.425s.425-.6417.425-1.075-.1417-.7917-.425-1.075-.6417-.425-1.075-.425-.7917.1417-1.075.425-.425.6417-.425 1.075.1417.7917.425 1.075.6417.425 1.075.425zm-5.5 7c.15 0 .2708-.0417.3625-.125s.1375-.1917.1375-.325c0-.2333-.125-.5083-.375-.825s-.375-.7917-.375-1.425c0-.7.2417-1.2583.725-1.675s1.075-.625 1.775-.625h1.75c1.1 0 2.0417-.3208 2.825-.9625s1.175-1.6375 1.175-2.9875c0-2.0167-.7708-3.6958-2.3125-5.0375-1.5417-1.34167-3.3708-2.0125-5.4875-2.0125-2.2667 0-4.2.775-5.8 2.325s-2.4 3.4417-2.4 5.675c0 2.2167.77917 4.1042 2.3375 5.6625 1.5583 1.5583 3.4458 2.3375 5.6625 2.3375z" fill="#1c1b1f"/></g></svg>