<svg width="30" height="30" viewBox="0 0 30 30" fill="none" xmlns="http://www.w3.org/2000/svg">
<mask id="mask0_115_455" style="mask-type:alpha" maskUnits="userSpaceOnUse" x="5" y="5" width="20" height="20">
<rect x="5" y="5" width="20" height="20" fill="#D9D9D9"/>
</mask>
<g mask="url(#mask0_115_455)">
<path d="M9.16667 22.5C8.70833 22.5 8.31597 22.3368 7.98958 22.0104C7.66319 21.684 7.5 21.2917 7.5 20.8333V9.16667C7.5 8.70833 7.66319 8.31597 7.98958 7.98958C8.31597 7.66319 8.70833 7.5 9.16667 7.5H16.6667V9.16667H9.16667V20.8333H20.8333V13.3333H22.5V20.8333C22.5 21.2917 22.3368 21.684 22.0104 22.0104C21.684 22.3368 21.2917 22.5 20.8333 22.5H9.16667ZM19.1667 12.5V10.8333H17.5V9.16667H19.1667V7.5H20.8333V9.16667H22.5V10.8333H20.8333V12.5H19.1667ZM10 19.1667H20L16.875 15L14.375 18.3333L12.5 15.8333L10 19.1667Z" fill="#1C1B1F"/>
</g>
</svg>
