<svg width="30" height="30" viewBox="0 0 30 30" fill="none" xmlns="http://www.w3.org/2000/svg">
<path d="M20.8769 2.70972H12.7098H12.077L11.6298 3.15687L5.44716 9.33986L5 9.78702V10.4196V23.1667C5 25.4404 6.84969 27.2904 9.12379 27.2904H20.8769C23.1503 27.2904 25 25.4404 25 23.1667V6.8335C25 4.55941 23.1503 2.70972 20.8769 2.70972ZM23.4735 23.1666C23.4735 24.601 22.311 25.7635 20.8769 25.7635H9.12379C7.68908 25.7635 6.52659 24.601 6.52659 23.1666V10.4195H10.5457C11.7404 10.4195 12.7098 9.45081 12.7098 8.25577V4.2366H20.8769C22.311 4.2366 23.4735 5.39909 23.4735 6.8335V23.1666Z" fill="#4B4B4B"/>
<path d="M10.9646 14.8457H9.59499C9.3342 14.8457 9.17798 15.0153 9.17798 15.2694V18.8102C9.17798 19.1169 9.37981 19.3191 9.66004 19.3191C9.93422 19.3191 10.136 19.117 10.136 18.8102V17.7346C10.136 17.7084 10.1494 17.6953 10.1756 17.6953H10.9646C11.9294 17.6953 12.51 17.1084 12.51 16.2737C12.51 15.4259 11.9361 14.8457 10.9646 14.8457ZM10.9057 16.867H10.1756C10.1494 16.867 10.136 16.854 10.136 16.8281V15.7129C10.136 15.6867 10.1494 15.6737 10.1756 15.6737H10.9057C11.3099 15.6737 11.5513 15.9151 11.5513 16.2737C11.5513 16.6324 11.3099 16.867 10.9057 16.867Z" fill="#4B4B4B"/>
<path d="M14.721 14.8457H13.6712C13.4104 14.8457 13.2542 15.0153 13.2542 15.2694V18.8625C13.2542 19.117 13.4103 19.2799 13.6712 19.2799H14.721C15.6663 19.2799 16.2536 18.9799 16.4882 18.2561C16.5727 18.0017 16.619 17.6953 16.619 17.0628C16.619 16.4302 16.5727 16.1238 16.4882 15.8694C16.2536 15.1457 15.6663 14.8457 14.721 14.8457ZM15.5691 17.9236C15.4578 18.2756 15.1387 18.4257 14.6949 18.4257H14.2517C14.2256 18.4257 14.2122 18.4127 14.2122 18.3866V15.7391C14.2122 15.7129 14.2256 15.6998 14.2517 15.6998H14.6949C15.1387 15.6998 15.4578 15.85 15.5691 16.202C15.6147 16.3522 15.6469 16.613 15.6469 17.0628C15.6469 17.5127 15.6147 17.7734 15.5691 17.9236Z" fill="#4B4B4B"/>
<path d="M20.049 14.8457H17.8977C17.6369 14.8457 17.48 15.0153 17.48 15.2694V18.8102C17.48 19.1169 17.6825 19.3191 17.9627 19.3191C18.2362 19.3191 18.4387 19.117 18.4387 18.8102V17.5452C18.4387 17.5193 18.4514 17.5063 18.4776 17.5063H19.7299C20.0102 17.5063 20.173 17.3367 20.173 17.0953C20.173 16.8539 20.0102 16.6847 19.7299 16.6847H18.4776C18.4514 16.6847 18.4387 16.6716 18.4387 16.6455V15.7129C18.4387 15.6867 18.4514 15.6737 18.4776 15.6737H20.049C20.3165 15.6737 20.4929 15.4977 20.4929 15.2631C20.4928 15.0217 20.3165 14.8457 20.049 14.8457Z" fill="#4B4B4B"/>
</svg>
