<svg fill="none" height="30" viewBox="0 0 30 30" width="30" xmlns="http://www.w3.org/2000/svg"><g fill="#424242"><path d="m25.3536 10.3536c.1952-.1953.1952-.51189 0-.70715l-3.182-3.18198c-.1953-.19527-.5119-.19527-.7071 0-.1953.19526-.1953.51184 0 .7071l2.8284 2.82843-2.8284 2.8284c-.1953.1953-.1953.5119 0 .7071.1952.1953.5118.1953.7071 0zm-20.3536.1464h20v-1h-20z"/><path d="m4.64645 19.6464c-.19527.1953-.19527.5119 0 .7072l3.18198 3.1819c.19526.1953.51184.1953.7071 0 .19527-.1952.19527-.5118 0-.7071l-2.82842-2.8284 2.82842-2.8284c.19527-.1953.19527-.5119 0-.7071-.19526-.1953-.51184-.1953-.7071 0zm.35355.8536h20v-1h-20z"/></g></svg>