<svg width="40" height="40" viewBox="0 0 40 40" fill="none" xmlns="http://www.w3.org/2000/svg">
<path d="M0 5C0 2.23858 2.23858 0 5 0H40V40H5C2.23858 40 0 37.7614 0 35V5Z" fill="#E6E6E6"/>
<mask id="mask0_249_101" style="mask-type:alpha" maskUnits="userSpaceOnUse" x="7" y="7" width="26" height="26">
<rect x="7.5" y="7.5" width="25" height="25" fill="#D9D9D9"/>
</mask>
<g mask="url(#mask0_249_101)">
<path d="M20 22.0833C19.7049 22.0833 19.4575 21.9834 19.2578 21.7838C19.0582 21.5841 18.9583 21.3367 18.9583 21.0416C18.9583 20.7464 19.0582 20.4991 19.2578 20.2994C19.4575 20.0997 19.7049 19.9999 20 19.9999C20.2951 19.9999 20.5425 20.0997 20.7422 20.2994C20.9418 20.4991 21.0417 20.7464 21.0417 21.0416C21.0417 21.3367 20.9418 21.5841 20.7422 21.7838C20.5425 21.9834 20.2951 22.0833 20 22.0833ZM15.8333 22.0833C15.5382 22.0833 15.2908 21.9834 15.0911 21.7838C14.8915 21.5841 14.7917 21.3367 14.7917 21.0416C14.7917 20.7464 14.8915 20.4991 15.0911 20.2994C15.2908 20.0997 15.5382 19.9999 15.8333 19.9999C16.1285 19.9999 16.3759 20.0997 16.5755 20.2994C16.7752 20.4991 16.875 20.7464 16.875 21.0416C16.875 21.3367 16.7752 21.5841 16.5755 21.7838C16.3759 21.9834 16.1285 22.0833 15.8333 22.0833ZM24.1667 22.0833C23.8715 22.0833 23.6241 21.9834 23.4245 21.7838C23.2248 21.5841 23.125 21.3367 23.125 21.0416C23.125 20.7464 23.2248 20.4991 23.4245 20.2994C23.6241 20.0997 23.8715 19.9999 24.1667 19.9999C24.4618 19.9999 24.7092 20.0997 24.9089 20.2994C25.1085 20.4991 25.2083 20.7464 25.2083 21.0416C25.2083 21.3367 25.1085 21.5841 24.9089 21.7838C24.7092 21.9834 24.4618 22.0833 24.1667 22.0833ZM20 26.2499C19.7049 26.2499 19.4575 26.1501 19.2578 25.9504C19.0582 25.7508 18.9583 25.5034 18.9583 25.2083C18.9583 24.9131 19.0582 24.6657 19.2578 24.4661C19.4575 24.2664 19.7049 24.1666 20 24.1666C20.2951 24.1666 20.5425 24.2664 20.7422 24.4661C20.9418 24.6657 21.0417 24.9131 21.0417 25.2083C21.0417 25.5034 20.9418 25.7508 20.7422 25.9504C20.5425 26.1501 20.2951 26.2499 20 26.2499ZM15.8333 26.2499C15.5382 26.2499 15.2908 26.1501 15.0911 25.9504C14.8915 25.7508 14.7917 25.5034 14.7917 25.2083C14.7917 24.9131 14.8915 24.6657 15.0911 24.4661C15.2908 24.2664 15.5382 24.1666 15.8333 24.1666C16.1285 24.1666 16.3759 24.2664 16.5755 24.4661C16.7752 24.6657 16.875 24.9131 16.875 25.2083C16.875 25.5034 16.7752 25.7508 16.5755 25.9504C16.3759 26.1501 16.1285 26.2499 15.8333 26.2499ZM24.1667 26.2499C23.8715 26.2499 23.6241 26.1501 23.4245 25.9504C23.2248 25.7508 23.125 25.5034 23.125 25.2083C23.125 24.9131 23.2248 24.6657 23.4245 24.4661C23.6241 24.2664 23.8715 24.1666 24.1667 24.1666C24.4618 24.1666 24.7092 24.2664 24.9089 24.4661C25.1085 24.6657 25.2083 24.9131 25.2083 25.2083C25.2083 25.5034 25.1085 25.7508 24.9089 25.9504C24.7092 26.1501 24.4618 26.2499 24.1667 26.2499ZM12.7083 30.4166C12.1354 30.4166 11.645 30.2126 11.237 29.8046C10.829 29.3966 10.625 28.9062 10.625 28.3333V13.7499C10.625 13.177 10.829 12.6866 11.237 12.2786C11.645 11.8706 12.1354 11.6666 12.7083 11.6666H13.75V9.58325H15.8333V11.6666H24.1667V9.58325H26.25V11.6666H27.2917C27.8646 11.6666 28.355 11.8706 28.763 12.2786C29.171 12.6866 29.375 13.177 29.375 13.7499V28.3333C29.375 28.9062 29.171 29.3966 28.763 29.8046C28.355 30.2126 27.8646 30.4166 27.2917 30.4166H12.7083ZM12.7083 28.3333H27.2917V17.9166H12.7083V28.3333Z" fill="#1C1B1F"/>
</g>
</svg>
