<svg width="30" height="30" viewBox="0 0 30 30" fill="none" xmlns="http://www.w3.org/2000/svg">
<mask id="mask0_115_457" style="mask-type:alpha" maskUnits="userSpaceOnUse" x="3" y="3" width="24" height="24">
<rect x="3" y="3" width="24" height="24" fill="#D9D9D9"/>
</mask>
<g mask="url(#mask0_115_457)">
<path d="M12.6154 21.5V20.5H23V21.5H12.6154ZM12.6154 15.5V14.5H23V15.5H12.6154ZM12.6154 9.50002V8.50002H23V9.50002H12.6154ZM8.32692 22.3269C7.96202 22.3269 7.64964 22.197 7.38978 21.9372C7.12993 21.6773 7 21.3649 7 21C7 20.6351 7.12993 20.3227 7.38978 20.0629C7.64964 19.803 7.96202 19.6731 8.32692 19.6731C8.69182 19.6731 9.00421 19.803 9.26408 20.0629C9.52393 20.3227 9.65385 20.6351 9.65385 21C9.65385 21.3649 9.52393 21.6773 9.26408 21.9372C9.00421 22.197 8.69182 22.3269 8.32692 22.3269ZM8.32692 16.3269C7.96202 16.3269 7.64964 16.197 7.38978 15.9372C7.12993 15.6773 7 15.3649 7 15C7 14.6351 7.12993 14.3227 7.38978 14.0629C7.64964 13.803 7.96202 13.6731 8.32692 13.6731C8.69182 13.6731 9.00421 13.803 9.26408 14.0629C9.52393 14.3227 9.65385 14.6351 9.65385 15C9.65385 15.3649 9.52393 15.6773 9.26408 15.9372C9.00421 16.197 8.69182 16.3269 8.32692 16.3269ZM8.32692 10.3269C7.96202 10.3269 7.64964 10.197 7.38978 9.93717C7.12993 9.67731 7 9.36492 7 9.00002C7 8.63512 7.12993 8.32274 7.38978 8.06287C7.64964 7.80302 7.96202 7.6731 8.32692 7.6731C8.69182 7.6731 9.00421 7.80302 9.26408 8.06287C9.52393 8.32274 9.65385 8.63512 9.65385 9.00002C9.65385 9.36492 9.52393 9.67731 9.26408 9.93717C9.00421 10.197 8.69182 10.3269 8.32692 10.3269Z" fill="#1C1B1F"/>
</g>
</svg>
