<svg width="30" height="30" viewBox="0 0 30 30" fill="none" xmlns="http://www.w3.org/2000/svg">
<mask id="mask0_115_458" style="mask-type:alpha" maskUnits="userSpaceOnUse" x="3" y="3" width="24" height="24">
<rect x="3" y="3" width="24" height="24" fill="#D9D9D9"/>
</mask>
<g mask="url(#mask0_115_458)">
<path d="M7 24V23.1154H9.5V21.75H8V20.8654H9.5V19.5H7V18.6154H9.6923C9.88845 18.6154 10.0529 18.6817 10.1856 18.8144C10.3183 18.9471 10.3846 19.1116 10.3846 19.3077V20.6923C10.3846 20.8885 10.3183 21.0529 10.1856 21.1856C10.0529 21.3183 9.88845 21.3846 9.6923 21.3846C9.88845 21.3846 10.0529 21.451 10.1856 21.5837C10.3183 21.7164 10.3846 21.8808 10.3846 22.0769V23.3077C10.3846 23.5038 10.3183 23.6683 10.1856 23.801C10.0529 23.9337 9.88845 24 9.6923 24H7ZM7 17.6923V15.25C7 15.0539 7.06634 14.8894 7.19902 14.7567C7.33172 14.624 7.49615 14.5577 7.6923 14.5577H9.5V13.1923H7V12.3077H9.6923C9.88845 12.3077 10.0529 12.374 10.1856 12.5067C10.3183 12.6394 10.3846 12.8039 10.3846 13V14.75C10.3846 14.9461 10.3183 15.1106 10.1856 15.2433C10.0529 15.376 9.88845 15.4423 9.6923 15.4423H7.88462V16.8077H10.3846V17.6923H7ZM8.5 11.3846V6.88463H7V6H9.38462V11.3846H8.5ZM12.6154 21.5V20.5H23V21.5H12.6154ZM12.6154 15.5V14.5H23V15.5H12.6154ZM12.6154 9.5V8.5H23V9.5H12.6154Z" fill="#6E6E6E"/>
</g>
</svg>
