<svg width="40" height="40" viewBox="0 0 40 40" fill="none" xmlns="http://www.w3.org/2000/svg">
<path d="M0 5C0 2.23858 2.23858 0 5 0H40V40H5C2.23858 40 0 37.7614 0 35V5Z" fill="#E6E6E6"/>
<mask id="mask0_249_152" style="mask-type:alpha" maskUnits="userSpaceOnUse" x="7" y="7" width="26" height="26">
<rect x="7.5" y="7.5" width="25" height="25" fill="#D9D9D9"/>
</mask>
<g mask="url(#mask0_249_152)">
<path d="M20.0001 28.3333C19.1667 27.6735 18.264 27.1614 17.2917 26.7968C16.3195 26.4322 15.3126 26.2499 14.2709 26.2499C13.5417 26.2499 12.8256 26.3454 12.1225 26.5364C11.4194 26.7273 10.7466 26.9964 10.1042 27.3437C9.73966 27.5346 9.3881 27.526 9.04956 27.3176C8.71102 27.1093 8.54175 26.8055 8.54175 26.4062V13.8541C8.54175 13.6631 8.58949 13.4808 8.68498 13.3072C8.78046 13.1336 8.92369 13.0034 9.11466 12.9166C9.91328 12.4999 10.7466 12.1874 11.6147 11.9791C12.4827 11.7708 13.3681 11.6666 14.2709 11.6666C15.2779 11.6666 16.2631 11.7968 17.2266 12.0572C18.1902 12.3176 19.1147 12.7083 20.0001 13.2291V25.8333C20.8855 25.2777 21.8143 24.861 22.7865 24.5833C23.7588 24.3055 24.7397 24.1666 25.7292 24.1666C26.3542 24.1666 26.9662 24.2187 27.5652 24.3228C28.1641 24.427 28.7674 24.5833 29.3751 24.7916V12.2916C29.6355 12.3784 29.8916 12.4695 30.1433 12.565C30.395 12.6605 30.6424 12.7777 30.8855 12.9166C31.0765 13.0034 31.2197 13.1336 31.3152 13.3072C31.4107 13.4808 31.4584 13.6631 31.4584 13.8541V26.4062C31.4584 26.8055 31.2891 27.1093 30.9506 27.3176C30.6121 27.526 30.2605 27.5346 29.8959 27.3437C29.2536 26.9964 28.5808 26.7273 27.8777 26.5364C27.1746 26.3454 26.4584 26.2499 25.7292 26.2499C24.6876 26.2499 23.6806 26.4322 22.7084 26.7968C21.7362 27.1614 20.8334 27.6735 20.0001 28.3333ZM22.0834 23.1249V13.2291L27.2917 8.02075V18.4374L22.0834 23.1249Z" fill="#1C1B1F"/>
</g>
</svg>
