<svg width="40" height="40" viewBox="0 0 40 40" fill="none" xmlns="http://www.w3.org/2000/svg">
<path d="M0 5C0 2.23858 2.23858 0 5 0H40V40H5C2.23858 40 0 37.7614 0 35V5Z" fill="#E6E6E6"/>
<mask id="mask0_249_208" style="mask-type:alpha" maskUnits="userSpaceOnUse" x="7" y="7" width="26" height="26">
<rect x="7.5" y="7.5" width="25" height="25" fill="#D9D9D9"/>
</mask>
<g mask="url(#mask0_249_208)">
<path d="M14.7916 28.3332V16.8489C14.7916 16.2759 14.9999 15.7898 15.4166 15.3905C15.8332 14.9912 16.328 14.7916 16.9009 14.7916H28.3332C28.9062 14.7916 29.3966 14.9956 29.8046 15.4035C30.2126 15.8115 30.4166 16.302 30.4166 16.8749V25.2082L25.2082 30.4166H16.8749C16.302 30.4166 15.8115 30.2126 15.4035 29.8046C14.9956 29.3966 14.7916 28.9062 14.7916 28.3332ZM9.60928 14.0103C9.50511 13.4374 9.61796 12.9209 9.94782 12.4608C10.2777 12.0008 10.7291 11.7187 11.302 11.6145L22.6041 9.60928C23.177 9.50511 23.6935 9.61796 24.1535 9.94782C24.6136 10.2777 24.8957 10.7291 24.9999 11.302L25.2603 12.7082H16.8749C15.7291 12.7082 14.7482 13.1162 13.9322 13.9322C13.1162 14.7482 12.7082 15.7291 12.7082 16.8749V26.8228C12.4305 26.6666 12.1917 26.4582 11.9921 26.1978C11.7924 25.9374 11.6666 25.6423 11.6145 25.3124L9.60928 14.0103ZM28.3332 24.1666H24.1666V28.3332L28.3332 24.1666Z" fill="#1C1B1F"/>
</g>
</svg>
