<svg width="40" height="40" viewBox="0 0 40 40" fill="none" xmlns="http://www.w3.org/2000/svg">
<mask id="mask0_115_437" style="mask-type:alpha" maskUnits="userSpaceOnUse" x="0" y="0" width="40" height="40">
<rect width="40" height="40" fill="#D9D9D9"/>
</mask>
<g mask="url(#mask0_115_437)">
<path d="M15.9165 36.6666L15.1388 31.3888C14.6665 31.2129 14.1827 30.9814 13.6874 30.6944C13.192 30.4073 12.7452 30.1064 12.3471 29.7916L7.41654 31.986L3.30542 24.7916L7.736 21.5138C7.6897 21.2823 7.66192 21.03 7.65267 20.7569C7.64339 20.4837 7.63875 20.2314 7.63875 19.9999C7.63875 19.7684 7.64339 19.5161 7.65267 19.243C7.66192 18.9698 7.6897 18.7175 7.736 18.486L3.30542 15.2083L7.41654 8.01384L12.3471 10.2083C12.7452 9.89345 13.1943 9.59252 13.6943 9.30546C14.1943 9.01843 14.6758 8.79621 15.1388 8.63879L15.9165 3.33325H24.0832L24.861 8.61104C25.3332 8.78696 25.8216 9.01381 26.3263 9.29159C26.8309 9.56936 27.273 9.87492 27.6527 10.2083L32.5832 8.01384L36.6943 15.2083L32.2638 18.4305C32.3101 18.6805 32.3378 18.942 32.3471 19.2152C32.3564 19.4883 32.361 19.7499 32.361 19.9999C32.361 20.2499 32.3564 20.5069 32.3471 20.7708C32.3378 21.0346 32.3054 21.2916 32.2499 21.5416L36.6804 24.7916L32.5693 31.986L27.6527 29.7916C27.2545 30.1064 26.8101 30.412 26.3193 30.7083C25.8286 31.0046 25.3425 31.2314 24.861 31.3888L24.0832 36.6666H15.9165ZM18.2221 33.8888H21.7638L22.3471 29.3055C23.2453 29.0833 24.0902 28.743 24.8818 28.2847C25.6735 27.8263 26.3934 27.2731 27.0415 26.6249L31.361 28.4722L33.0138 25.5277L29.2082 22.7083C29.3286 22.2638 29.4212 21.817 29.486 21.368C29.5508 20.9189 29.5832 20.4629 29.5832 19.9999C29.5832 19.5369 29.5554 19.0809 29.4999 18.6319C29.4443 18.1828 29.3471 17.736 29.2082 17.2916L33.0138 14.4721L31.361 11.5277L27.0415 13.3888C26.4119 12.6944 25.7059 12.1133 24.9235 11.6458C24.1411 11.1781 23.2823 10.861 22.3471 10.6943L21.7777 6.111H18.236L17.6527 10.6943C16.736 10.8981 15.8818 11.2291 15.0901 11.6874C14.2985 12.1458 13.5878 12.7083 12.9582 13.3749L8.63875 11.5277L6.98596 14.4721L10.7915 17.2777C10.6712 17.7314 10.5786 18.1805 10.5138 18.6249C10.4489 19.0694 10.4165 19.5277 10.4165 19.9999C10.4165 20.4629 10.4489 20.9166 10.5138 21.361C10.5786 21.8055 10.6712 22.2546 10.7915 22.7083L6.98596 25.5277L8.63875 28.4722L12.9582 26.611C13.6064 27.2685 14.3263 27.8263 15.1179 28.2847C15.9096 28.743 16.7545 29.0833 17.6527 29.3055L18.2221 33.8888ZM20.0277 25.5555C21.5647 25.5555 22.8749 25.0138 23.9582 23.9305C25.0415 22.8471 25.5832 21.5369 25.5832 19.9999C25.5832 18.4629 25.0415 17.1527 23.9582 16.0694C22.8749 14.986 21.5647 14.4444 20.0277 14.4444C18.4814 14.4444 17.1689 14.986 16.0902 16.0694C15.0114 17.1527 14.4721 18.4629 14.4721 19.9999C14.4721 21.5369 15.0114 22.8471 16.0902 23.9305C17.1689 25.0138 18.4814 25.5555 20.0277 25.5555Z" fill="#1C1B1F"/>
</g>
</svg>
