<svg width="30" height="30" viewBox="0 0 30 30" fill="none" xmlns="http://www.w3.org/2000/svg">
<path d="M18.6856 17.832C18.6856 18.504 18.5363 19.0907 18.2376 19.592C17.939 20.0933 17.4856 20.4827 16.8776 20.76C16.2803 21.0267 15.523 21.16 14.6056 21.16C14.179 21.16 13.7843 21.1333 13.4216 21.08C13.059 21.0267 12.7176 20.952 12.3976 20.856C12.0776 20.7493 11.7576 20.6213 11.4376 20.472V18.216C11.9816 18.4507 12.5363 18.6693 13.1016 18.872C13.6776 19.064 14.2216 19.16 14.7336 19.16C15.0643 19.16 15.331 19.1067 15.5336 19C15.7363 18.8933 15.8856 18.7493 15.9816 18.568C16.0776 18.3867 16.1256 18.1787 16.1256 17.944C16.1256 17.656 16.0456 17.4107 15.8856 17.208C15.7363 17.0053 15.5123 16.8187 15.2136 16.648C14.915 16.4667 14.547 16.2853 14.1096 16.104C13.7896 15.9653 13.475 15.8053 13.1656 15.624C12.8563 15.4427 12.579 15.224 12.3336 14.968C12.0883 14.7013 11.891 14.3813 11.7416 14.008C11.603 13.6347 11.5336 13.1867 11.5336 12.664C11.5336 11.9813 11.6936 11.4 12.0136 10.92C12.3336 10.4293 12.7816 10.056 13.3576 9.8C13.9336 9.544 14.6056 9.416 15.3736 9.416C16.003 9.416 16.5843 9.48533 17.1176 9.624C17.6616 9.76267 18.179 9.96 18.6696 10.216L17.8536 12.104C17.3843 11.8907 16.9363 11.7253 16.5096 11.608C16.0936 11.4907 15.6883 11.432 15.2936 11.432C15.027 11.432 14.803 11.48 14.6216 11.576C14.4403 11.672 14.3016 11.8053 14.2056 11.976C14.1203 12.1467 14.0776 12.3493 14.0776 12.584C14.0776 12.8507 14.147 13.08 14.2856 13.272C14.435 13.4533 14.6643 13.6347 14.9736 13.816C15.283 13.9867 15.6776 14.1947 16.1576 14.44C16.691 14.7067 17.1443 14.9893 17.5176 15.288C17.9016 15.576 18.1896 15.9227 18.3816 16.328C18.5843 16.7333 18.6856 17.2347 18.6856 17.832Z" fill="#424242"/>
<path d="M10.7656 15.752H19.2296V16.552H10.7656V15.752Z" fill="#424242"/>
</svg>
