<svg width="30" height="30" viewBox="0 0 30 30" fill="none" xmlns="http://www.w3.org/2000/svg">
<path d="M19.5045 16.968C19.5045 17.7573 19.3338 18.472 18.9925 19.112C18.6618 19.7413 18.1605 20.2427 17.4885 20.616C16.8165 20.9787 15.9738 21.16 14.9605 21.16C13.5098 21.16 12.4005 20.776 11.6325 20.008C10.8752 19.2293 10.4965 18.2053 10.4965 16.936V9.576H13.0885V16.568C13.0885 17.5067 13.2485 18.168 13.5685 18.552C13.8992 18.936 14.3792 19.128 15.0085 19.128C15.4565 19.128 15.8192 19.0373 16.0965 18.856C16.3738 18.6747 16.5765 18.392 16.7045 18.008C16.8432 17.624 16.9125 17.1387 16.9125 16.552V9.576H19.5045V16.968Z" fill="#424242"/>
<path d="M9.3125 23H20.6885V23.8H9.3125V23Z" fill="#424242"/>
</svg>
